<?xml version="1.0" encoding="utf-8"?>
<!-- Generator: Adobe Illustrator 18.1.1, SVG Export Plug-In . SVG Version: 6.00 Build 0)  -->
<!DOCTYPE svg PUBLIC "-//W3C//DTD SVG 1.1//EN" "http://www.w3.org/Graphics/SVG/1.1/DTD/svg11.dtd">
<svg version="1.1" id="Layer_1" xmlns="http://www.w3.org/2000/svg" xmlns:xlink="http://www.w3.org/1999/xlink" x="0px" y="0px"
	 viewBox="0 0 142.3 38.2" enable-background="new 0 0 142.3 38.2" xml:space="preserve">
<g>
	<path fill="#FFFFFF" d="M26.8,0C22.5,0,19,3.5,19,7.8v15.6c0,4.3,3.5,7.8,7.8,7.8c4.3,0,7.8-3.5,7.8-7.8V7.8C34.5,3.5,31,0,26.8,0z
		 M30.5,23.4c0,2.1-1.7,3.8-3.8,3.8c-2.1,0-3.8-1.7-3.8-3.8V7.8C23,5.7,24.7,4,26.8,4c2.1,0,3.8,1.7,3.8,3.8c0,0,0,0.1,0,0.1v15.4
		C30.5,23.3,30.5,23.3,30.5,23.4z"/>
	<path fill="#FFFFFF" d="M46.3,0c-4.3,0-7.8,3.5-7.8,7.8v15.6c0,4.3,3.5,7.8,7.8,7.8c4.3,0,7.8-3.5,7.8-7.8V7.8
		C54.1,3.5,50.6,0,46.3,0z M50.1,23.4c0,2.1-1.7,3.8-3.8,3.8c-2.1,0-3.8-1.7-3.8-3.8V7.8c0-2.1,1.7-3.8,3.8-3.8
		c2.1,0,3.8,1.7,3.8,3.8c0,0,0,0.1,0,0.1v15.4C50.1,23.3,50.1,23.3,50.1,23.4z"/>
	<polygon fill="#FFFFFF" points="69.7,0.8 69.7,20.8 62.1,0.8 58.1,0.8 58.1,30.3 62.1,30.3 62.1,22.9 62.1,16.2 62.1,10 69.7,30.3 
		73.7,30.3 73.7,0.8 	"/>
	<path fill="#FFFFFF" d="M11.6,9.8h4v-2c0-4.3-3.5-7.8-7.8-7.8C3.5,0,0,3.5,0,7.8v1.1c0,2.5,1.3,4.7,3.2,6l0,0l6.8,4.7
		c0.9,0.7,1.5,1.7,1.5,2.9l0,0v0.8c0,0,0,0.1,0,0.1c0,2.1-1.7,3.8-3.8,3.8c-2.1,0-3.8-1.7-3.8-3.8v-2.2H0v2.2c0,4.3,3.5,7.8,7.8,7.8
		c4.3,0,7.8-3.5,7.8-7.8v-1h0c0,0,0-0.1,0-0.1c0-2.5-1.2-4.6-3.1-5.9l0,0l-6.7-4.6l0,0C4.7,11.1,4,9.9,4,8.5c0,0,0-0.1,0-0.1l0,0
		V7.8C4,5.7,5.7,4,7.8,4c2.1,0,3.8,1.7,3.8,3.8c0,0,0,0.1,0,0.1V9.8z"/>
	<rect x="122.6" y="34.3" fill="#FFFFFF" width="19.7" height="4"/>
	<g>
		<path fill="#FFFFFF" d="M84.2,0.8h15.6v4H88.2l0,9h7.6v4h-7.6v12.6h-4V0.8z"/>
	</g>
	<g>
		<path fill="#FFFFFF" d="M102.9,0.8h4.1l3.7,15.6h0.1l3.8-15.6h4v29.5h-4l0-17.9l0,2.8l-2.8,9.9h-2.1l-2.7-9.9v-2.8v17.9h-4V0.8z"
			/>
	</g>
</g>
</svg>
